# Blender 4.5.0
# www.blender.org
mtllib SkyBox.mtl
o Sphere
v 0.000000 8.314696 -5.555702
v 0.000000 5.555702 -8.314696
v 0.000000 1.950903 -9.807853
v 0.000000 0.000000 -10.000000
v 0.000000 -1.950903 -9.807853
v 0.000000 -5.555702 -8.314696
v 0.380602 9.807853 -1.913417
v 0.746578 9.238795 -3.753303
v 1.083864 8.314696 -5.448951
v 1.379497 7.071068 -6.935199
v 1.622117 5.555702 -8.154931
v 1.802399 3.826835 -9.061274
v 1.913417 1.950903 -9.619397
v 1.950903 0.000000 -9.807853
v 1.913417 -1.950903 -9.619397
v 1.802399 -3.826835 -9.061274
v 1.622117 -5.555702 -8.154931
v 1.379497 -7.071068 -6.935199
v 1.083864 -8.314696 -5.448951
v 0.746578 -9.238795 -3.753303
v 0.380602 -9.807853 -1.913417
v 0.746578 9.807853 -1.802399
v 1.464466 9.238795 -3.535534
v 2.126075 8.314696 -5.132799
v 2.705981 7.071068 -6.532815
v 3.181896 5.555702 -7.681776
v 3.535533 3.826835 -8.535534
v 3.753303 1.950903 -9.061274
v 3.826834 0.000000 -9.238794
v 3.753303 -1.950903 -9.061274
v 3.535533 -3.826835 -8.535534
v 3.181896 -5.555702 -7.681776
v 2.705981 -7.071068 -6.532815
v 2.126075 -8.314696 -5.132799
v 1.464466 -9.238795 -3.535534
v 0.746578 -9.807853 -1.802399
v 1.083864 9.807853 -1.622117
v 2.126075 9.238795 -3.181896
v 3.086583 8.314696 -4.619397
v 3.928475 7.071068 -5.879378
v 4.619397 5.555702 -6.913416
v 5.132799 3.826835 -7.681777
v 5.448951 1.950903 -8.154931
v 5.555702 0.000000 -8.314694
v 5.448951 -1.950903 -8.154931
v 5.132799 -3.826835 -7.681777
v 4.619397 -5.555702 -6.913416
v 3.928475 -7.071068 -5.879378
v 3.086583 -8.314696 -4.619397
v 2.126075 -9.238795 -3.181896
v 1.083864 -9.807853 -1.622117
v 1.379497 9.807853 -1.379497
v 2.705981 9.238795 -2.705980
v 3.928474 8.314696 -3.928474
v 5.000000 7.071068 -5.000000
v 5.879377 5.555702 -5.879376
v 6.532814 3.826835 -6.532815
v 6.935199 1.950903 -6.935198
v 7.071068 0.000000 -7.071066
v 6.935199 -1.950903 -6.935198
v 6.532814 -3.826835 -6.532815
v 5.879377 -5.555702 -5.879376
v 5.000000 -7.071068 -5.000000
v 3.928474 -8.314696 -3.928474
v 2.705981 -9.238795 -2.705980
v 1.379497 -9.807853 -1.379497
v 1.622117 9.807853 -1.083863
v 3.181896 9.238795 -2.126075
v 4.619397 8.314696 -3.086582
v 5.879378 7.071068 -3.928475
v 6.913416 5.555702 -4.619396
v 7.681776 3.826835 -5.132800
v 8.154931 1.950903 -5.448950
v 8.314695 0.000000 -5.555700
v 8.154931 -1.950903 -5.448950
v 7.681776 -3.826835 -5.132800
v 6.913416 -5.555702 -4.619396
v 5.879378 -7.071068 -3.928475
v 4.619397 -8.314696 -3.086582
v 3.181896 -9.238795 -2.126075
v 1.622117 -9.807853 -1.083863
v 0.000000 10.000000 0.000000
v 1.802399 9.807853 -0.746578
v 3.535533 9.238795 -1.464466
v 5.132799 8.314696 -2.126075
v 6.532815 7.071068 -2.705981
v 7.681776 5.555702 -3.181895
v 8.535533 3.826835 -3.535534
v 9.061274 1.950903 -3.753302
v 9.238794 0.000000 -3.826832
v 9.061274 -1.950903 -3.753302
v 8.535533 -3.826835 -3.535534
v 7.681776 -5.555702 -3.181895
v 6.532815 -7.071068 -2.705981
v 5.132799 -8.314696 -2.126075
v 3.535533 -9.238795 -1.464466
v 1.802399 -9.807853 -0.746578
v 1.913417 9.807853 -0.380602
v 3.753302 9.238795 -0.746578
v 5.448951 8.314696 -1.083863
v 6.935199 7.071068 -1.379497
v 8.154930 5.555702 -1.622116
v 9.061274 3.826835 -1.802400
v 9.619396 1.950903 -1.913416
v 9.807851 0.000000 -1.950901
v 9.619396 -1.950903 -1.913416
v 9.061274 -3.826835 -1.802400
v 8.154930 -5.555702 -1.622116
v 6.935199 -7.071068 -1.379497
v 5.448951 -8.314696 -1.083863
v 3.753302 -9.238795 -0.746578
v 1.913417 -9.807853 -0.380602
v 1.950903 9.807853 0.000000
v 3.826834 9.238795 0.000000
v 5.555701 8.314696 0.000001
v 7.071067 7.071068 -0.000000
v 8.314694 5.555702 0.000001
v 9.238794 3.826835 -0.000000
v 9.807852 1.950903 0.000001
v 9.999997 0.000000 0.000002
v 9.807852 -1.950903 0.000001
v 9.238794 -3.826835 -0.000000
v 8.314694 -5.555702 0.000001
v 7.071067 -7.071068 -0.000000
v 5.555701 -8.314696 0.000001
v 3.826834 -9.238795 0.000000
v 1.950903 -9.807853 0.000000
v 1.913417 9.807853 0.380602
v 3.753302 9.238795 0.746579
v 5.448950 8.314696 1.083864
v 6.935198 7.071068 1.379497
v 8.154929 5.555702 1.622117
v 9.061274 3.826835 1.802399
v 9.619396 1.950903 1.913418
v 9.807849 0.000000 1.950904
v 9.619396 -1.950903 1.913418
v 9.061274 -3.826835 1.802399
v 8.154929 -5.555702 1.622117
v 6.935198 -7.071068 1.379497
v 5.448950 -8.314696 1.083864
v 3.753302 -9.238795 0.746579
v 1.913417 -9.807853 0.380602
v 1.802399 9.807853 0.746578
v 3.535533 9.238795 1.464466
v 5.132798 8.314696 2.126075
v 6.532814 7.071068 2.705980
v 7.681775 5.555702 3.181896
v 8.535533 3.826835 3.535533
v 9.061272 1.950903 3.753303
v 9.238791 0.000000 3.826835
v 9.061272 -1.950903 3.753303
v 8.535533 -3.826835 3.535533
v 7.681775 -5.555702 3.181896
v 6.532814 -7.071068 2.705980
v 5.132798 -8.314696 2.126075
v 3.535533 -9.238795 1.464466
v 1.802399 -9.807853 0.746578
v 1.622116 9.807853 1.083863
v 3.181896 9.238795 2.126075
v 4.619396 8.314696 3.086582
v 5.879377 7.071068 3.928474
v 6.913414 5.555702 4.619397
v 7.681776 3.826835 5.132799
v 8.154929 1.950903 5.448951
v 8.314692 0.000000 5.555702
v 8.154929 -1.950903 5.448951
v 7.681776 -3.826835 5.132799
v 6.913414 -5.555702 4.619397
v 5.879377 -7.071068 3.928474
v 4.619396 -8.314696 3.086582
v 3.181896 -9.238795 2.126075
v 1.622116 -9.807853 1.083863
v 1.379496 9.807853 1.379496
v 2.705980 9.238795 2.705980
v 3.928473 8.314696 3.928474
v 5.000000 7.071068 5.000000
v 5.879375 5.555702 5.879376
v 6.532814 3.826835 6.532813
v 6.935197 1.950903 6.935198
v 7.071062 0.000000 7.071066
v 6.935197 -1.950903 6.935198
v 6.532814 -3.826835 6.532813
v 5.879375 -5.555702 5.879376
v 5.000000 -7.071068 5.000000
v 3.928473 -8.314696 3.928474
v 2.705980 -9.238795 2.705980
v 1.379496 -9.807853 1.379496
v 1.083863 9.807853 1.622116
v 2.126074 9.238795 3.181896
v 3.086581 8.314696 4.619397
v 3.928474 7.071068 5.879377
v 4.619395 5.555702 6.913415
v 5.132799 3.826835 7.681776
v 5.448949 1.950903 8.154930
v 5.555697 0.000000 8.314693
v 5.448949 -1.950903 8.154930
v 5.132799 -3.826835 7.681776
v 4.619395 -5.555702 6.913415
v 3.928474 -7.071068 5.879377
v 3.086581 -8.314696 4.619397
v 2.126074 -9.238795 3.181896
v 1.083863 -9.807853 1.622116
v 0.746578 9.807853 1.802399
v 1.464465 9.238795 3.535533
v 2.126074 8.314696 5.132798
v 2.705980 7.071068 6.532814
v 3.181894 5.555702 7.681775
v 3.535533 3.826835 8.535532
v 3.753300 1.950903 9.061272
v 3.826829 0.000000 9.238791
v 3.753300 -1.950903 9.061272
v 3.535533 -3.826835 8.535532
v 3.181894 -5.555702 7.681775
v 2.705980 -7.071068 6.532814
v 2.126074 -8.314696 5.132798
v 1.464465 -9.238795 3.535533
v 0.746578 -9.807853 1.802399
v 0.380602 9.807853 1.913416
v 0.746578 9.238795 3.753302
v 1.083862 8.314696 5.448949
v 1.379497 7.071068 6.935198
v 1.622115 5.555702 8.154928
v 1.802399 3.826835 9.061272
v 1.913415 1.950903 9.619394
v 1.950899 0.000000 9.807848
v 1.913415 -1.950903 9.619394
v 1.802399 -3.826835 9.061272
v 1.622115 -5.555702 8.154928
v 1.379497 -7.071068 6.935198
v 1.083862 -8.314696 5.448949
v 0.746578 -9.238795 3.753302
v 0.380602 -9.807853 1.913416
v -0.000000 9.807853 1.950902
v -0.000001 9.238795 3.826833
v -0.000001 8.314696 5.555699
v -0.000000 7.071068 7.071066
v -0.000001 5.555702 8.314693
v 0.000000 3.826835 9.238792
v -0.000001 1.950903 9.807850
v -0.000003 0.000000 9.999993
v -0.000001 -1.950903 9.807850
v 0.000000 -3.826835 9.238792
v -0.000001 -5.555702 8.314693
v -0.000000 -7.071068 7.071066
v -0.000001 -8.314696 5.555699
v -0.000001 -9.238795 3.826833
v -0.000000 -9.807853 1.950902
v -0.380602 9.807853 1.913416
v -0.746579 9.238795 3.753302
v -1.083864 8.314696 5.448948
v -1.379497 7.071068 6.935198
v -1.622117 5.555702 8.154928
v -1.802399 3.826835 9.061272
v -1.913418 1.950903 9.619394
v -1.950905 0.000000 9.807845
v -1.913418 -1.950903 9.619394
v -1.802399 -3.826835 9.061272
v -1.622117 -5.555702 8.154928
v -1.379497 -7.071068 6.935198
v -1.083864 -8.314696 5.448948
v -0.746579 -9.238795 3.753302
v -0.380602 -9.807853 1.913416
v -0.746578 9.807853 1.802398
v -1.464466 9.238795 3.535533
v -2.126075 8.314696 5.132796
v -2.705980 7.071068 6.532813
v -3.181896 5.555702 7.681774
v -3.535532 3.826835 8.535531
v -3.753303 1.950903 9.061271
v -3.826835 0.000000 9.238788
v -3.753303 -1.950903 9.061271
v -3.535532 -3.826835 8.535531
v -3.181896 -5.555702 7.681774
v -2.705980 -7.071068 6.532813
v -2.126075 -8.314696 5.132796
v -1.464466 -9.238795 3.535533
v -0.746578 -9.807853 1.802398
v -1.083863 9.807853 1.622115
v -2.126075 9.238795 3.181895
v -3.086582 8.314696 4.619394
v -3.928474 7.071068 5.879376
v -4.619396 5.555702 6.913414
v -5.132797 3.826835 7.681775
v -5.448951 1.950903 8.154927
v -5.555701 0.000000 8.314688
v -5.448951 -1.950903 8.154927
v -5.132797 -3.826835 7.681775
v -4.619396 -5.555702 6.913414
v -3.928474 -7.071068 5.879376
v -3.086582 -8.314696 4.619394
v -2.126075 -9.238795 3.181895
v -1.083863 -9.807853 1.622115
v -1.379496 9.807853 1.379496
v -2.705980 9.238795 2.705979
v -3.928473 8.314696 3.928471
v -4.999999 7.071068 4.999999
v -5.879376 5.555702 5.879374
v -6.532812 3.826835 6.532813
v -6.935198 1.950903 6.935195
v -7.071065 0.000000 7.071059
v -6.935198 -1.950903 6.935195
v -6.532812 -3.826835 6.532813
v -5.879376 -5.555702 5.879374
v -4.999999 -7.071068 4.999999
v -3.928473 -8.314696 3.928471
v -2.705980 -9.238795 2.705979
v -1.379496 -9.807853 1.379496
v 0.000000 -10.000000 0.000000
v -1.622115 9.807853 1.083863
v -3.181896 9.238795 2.126074
v -4.619395 8.314696 3.086579
v -5.879376 7.071068 3.928473
v -6.913414 5.555702 4.619394
v -7.681775 3.826835 5.132798
v -8.154929 1.950903 5.448947
v -8.314692 0.000000 5.555694
v -8.154929 -1.950903 5.448947
v -7.681775 -3.826835 5.132798
v -6.913414 -5.555702 4.619394
v -5.879376 -7.071068 3.928473
v -4.619395 -8.314696 3.086579
v -3.181896 -9.238795 2.126074
v -1.622115 -9.807853 1.083863
v -1.802398 9.807853 0.746578
v -3.535533 9.238795 1.464465
v -5.132796 8.314696 2.126072
v -6.532813 7.071068 2.705980
v -7.681774 5.555702 3.181893
v -8.535530 3.826835 3.535533
v -9.061272 1.950903 3.753299
v -9.238789 0.000000 3.826827
v -9.061272 -1.950903 3.753299
v -8.535530 -3.826835 3.535533
v -7.681774 -5.555702 3.181893
v -6.532813 -7.071068 2.705980
v -5.132796 -8.314696 2.126072
v -3.535533 -9.238795 1.464465
v -1.802398 -9.807853 0.746578
v -1.913415 9.807853 0.380602
v -3.753301 9.238795 0.746578
v -5.448947 8.314696 1.083861
v -6.935198 7.071068 1.379496
v -8.154927 5.555702 1.622114
v -9.061271 3.826835 1.802399
v -9.619394 1.950903 1.913414
v -9.807844 0.000000 1.950897
v -9.619394 -1.950903 1.913414
v -9.061271 -3.826835 1.802399
v -8.154927 -5.555702 1.622114
v -6.935198 -7.071068 1.379496
v -5.448947 -8.314696 1.083861
v -3.753301 -9.238795 0.746578
v -1.913415 -9.807853 0.380602
v -1.950902 9.807853 -0.000000
v -3.826833 9.238795 -0.000001
v -5.555697 8.314696 -0.000001
v -7.071066 7.071068 -0.000000
v -8.314692 5.555702 -0.000002
v -9.238791 3.826835 -0.000000
v -9.807848 1.950903 -0.000003
v -9.999990 0.000000 -0.000004
v -9.807848 -1.950903 -0.000003
v -9.238791 -3.826835 -0.000000
v -8.314692 -5.555702 -0.000002
v -7.071066 -7.071068 -0.000000
v -5.555697 -8.314696 -0.000001
v -3.826833 -9.238795 -0.000001
v -1.950902 -9.807853 -0.000000
v -1.913415 9.807853 -0.380602
v -3.753301 9.238795 -0.746579
v -5.448946 8.314696 -1.083864
v -6.935197 7.071068 -1.379497
v -8.154926 5.555702 -1.622118
v -9.061271 3.826835 -1.802399
v -9.619392 1.950903 -1.913419
v -9.807842 0.000000 -1.950906
v -9.619392 -1.950903 -1.913419
v -9.061271 -3.826835 -1.802399
v -8.154926 -5.555702 -1.622118
v -6.935197 -7.071068 -1.379497
v -5.448946 -8.314696 -1.083864
v -3.753301 -9.238795 -0.746579
v -1.913415 -9.807853 -0.380602
v -1.802398 9.807853 -0.746578
v -3.535532 9.238795 -1.464466
v -5.132794 8.314696 -2.126075
v -6.532813 7.071068 -2.705980
v -7.681772 5.555702 -3.181896
v -8.535530 3.826835 -3.535532
v -9.061269 1.950903 -3.753303
v -9.238785 0.000000 -3.826835
v -9.061269 -1.950903 -3.753303
v -8.535530 -3.826835 -3.535532
v -7.681772 -5.555702 -3.181896
v -6.532813 -7.071068 -2.705980
v -5.132794 -8.314696 -2.126075
v -3.535532 -9.238795 -1.464466
v -1.802398 -9.807853 -0.746578
v -1.622115 9.807853 -1.083863
v -3.181894 9.238795 -2.126075
v -4.619392 8.314696 -3.086581
v -5.879376 7.071068 -3.928474
v -6.913412 5.555702 -4.619396
v -7.681774 3.826835 -5.132797
v -8.154925 1.950903 -5.448951
v -8.314685 0.000000 -5.555701
v -8.154925 -1.950903 -5.448951
v -7.681774 -3.826835 -5.132797
v -6.913412 -5.555702 -4.619396
v -5.879376 -7.071068 -3.928474
v -4.619392 -8.314696 -3.086581
v -3.181894 -9.238795 -2.126075
v -1.622115 -9.807853 -1.083863
v -1.379495 9.807853 -1.379496
v -2.705979 9.238795 -2.705979
v -3.928469 8.314696 -3.928473
v -4.999998 7.071068 -4.999999
v -5.879373 5.555702 -5.879375
v -6.532812 3.826835 -6.532812
v -6.935194 1.950903 -6.935197
v -7.071057 0.000000 -7.071064
v -6.935194 -1.950903 -6.935197
v -6.532812 -3.826835 -6.532812
v -5.879373 -5.555702 -5.879375
v -4.999998 -7.071068 -4.999999
v -3.928469 -8.314696 -3.928473
v -2.705979 -9.238795 -2.705979
v -1.379495 -9.807853 -1.379496
v -1.083863 9.807853 -1.622115
v -2.126074 9.238795 -3.181895
v -3.086578 8.314696 -4.619394
v -3.928473 7.071068 -5.879376
v -4.619393 5.555702 -6.913414
v -5.132797 3.826835 -7.681774
v -5.448946 1.950903 -8.154928
v -5.555692 0.000000 -8.314690
v -5.448946 -1.950903 -8.154928
v -5.132797 -3.826835 -7.681774
v -4.619393 -5.555702 -6.913414
v -3.928473 -7.071068 -5.879376
v -3.086578 -8.314696 -4.619394
v -2.126074 -9.238795 -3.181895
v -1.083863 -9.807853 -1.622115
v -0.746577 9.807853 -1.802398
v -1.464465 9.238795 -3.535532
v -2.126071 8.314696 -5.132795
v -2.705979 7.071068 -6.532813
v -3.181892 5.555702 -7.681773
v -3.535532 3.826835 -8.535530
v -3.753298 1.950903 -9.061270
v -3.826826 0.000000 -9.238786
v -3.753298 -1.950903 -9.061270
v -3.535532 -3.826835 -8.535530
v -3.181892 -5.555702 -7.681773
v -2.705979 -7.071068 -6.532813
v -2.126071 -8.314696 -5.132795
v -1.464465 -9.238795 -3.535532
v -0.746577 -9.807853 -1.802398
v -0.380602 9.807853 -1.913415
v -0.746577 9.238795 -3.753301
v -1.083860 8.314696 -5.448945
v -1.379496 7.071068 -6.935198
v -1.622113 5.555702 -8.154925
v -1.802398 3.826835 -9.061270
v -1.913413 1.950903 -9.619392
v -1.950896 0.000000 -9.807842
v -1.913413 -1.950903 -9.619392
v -1.802398 -3.826835 -9.061270
v -1.622113 -5.555702 -8.154925
v -1.379496 -7.071068 -6.935198
v -1.083860 -8.314696 -5.448945
v -0.746577 -9.238795 -3.753301
v -0.380602 -9.807853 -1.913415
v 0.000000 9.807853 -1.950901
v 0.000001 9.238795 -3.826832
v 0.000001 7.071068 -7.071066
v 0.000001 3.826835 -9.238791
v 0.000001 -3.826835 -9.238791
v 0.000001 -7.071068 -7.071066
v 0.000002 -8.314696 -5.555696
v 0.000001 -9.238795 -3.826832
v 0.000000 -9.807853 -1.950901
vn -0.0286 0.9565 0.2902
vn -0.0975 -0.0975 0.9904
vn -0.0097 -0.9951 0.0980
vn -0.0097 0.9951 0.0980
vn -0.0975 0.0975 0.9904
vn -0.0286 -0.9565 0.2902
vn -0.0938 0.2890 0.9527
vn -0.0464 -0.8810 0.4709
vn -0.0865 0.4696 0.8786
vn -0.0624 -0.7715 0.6332
vn -0.0759 0.6326 0.7708
vn -0.0759 -0.6326 0.7708
vn -0.0624 0.7715 0.6332
vn -0.0865 -0.4696 0.8786
vn -0.0464 0.8810 0.4709
vn -0.0938 -0.2890 0.9527
vn -0.1374 0.8810 0.4528
vn -0.2779 -0.2890 0.9161
vn -0.0846 0.9565 0.2790
vn -0.2889 -0.0976 0.9524
vn -0.0286 -0.9951 0.0942
vn -0.0286 0.9951 0.0942
vn -0.2889 0.0976 0.9524
vn -0.0846 -0.9565 0.2790
vn -0.2779 0.2890 0.9161
vn -0.1374 -0.8810 0.4528
vn -0.2563 0.4696 0.8448
vn -0.1847 -0.7715 0.6088
vn -0.2248 0.6326 0.7412
vn -0.2248 -0.6326 0.7412
vn -0.1847 0.7715 0.6088
vn -0.2563 -0.4696 0.8448
vn -0.2230 -0.8810 0.4173
vn -0.4162 0.4696 0.7786
vn -0.2999 -0.7715 0.5611
vn -0.3651 0.6326 0.6831
vn -0.3651 -0.6326 0.6831
vn -0.2999 0.7715 0.5611
vn -0.4162 -0.4696 0.7786
vn -0.2230 0.8810 0.4173
vn -0.4513 -0.2890 0.8443
vn -0.1374 0.9565 0.2571
vn -0.4691 -0.0975 0.8777
vn -0.0464 -0.9951 0.0869
vn -0.0464 0.9951 0.0869
vn -0.4691 0.0975 0.8777
vn -0.1374 -0.9565 0.2571
vn -0.4513 0.2890 0.8443
vn -0.6073 -0.2890 0.7400
vn -0.1850 0.9565 0.2254
vn -0.6314 -0.0975 0.7693
vn -0.0625 -0.9951 0.0761
vn -0.0625 0.9951 0.0761
vn -0.6314 0.0975 0.7693
vn -0.1850 -0.9565 0.2254
vn -0.6073 0.2890 0.7400
vn -0.3002 -0.8810 0.3658
vn -0.5601 0.4696 0.6825
vn -0.4036 -0.7715 0.4918
vn -0.4913 0.6326 0.5987
vn -0.4913 -0.6326 0.5987
vn -0.4036 0.7715 0.4918
vn -0.5601 -0.4696 0.6825
vn -0.3002 0.8810 0.3658
vn -0.6825 0.4696 0.5601
vn -0.4918 -0.7715 0.4036
vn -0.5987 0.6326 0.4913
vn -0.5987 -0.6326 0.4913
vn -0.4918 0.7715 0.4036
vn -0.6825 -0.4696 0.5601
vn -0.3658 0.8810 0.3002
vn -0.7400 -0.2890 0.6073
vn -0.2254 0.9565 0.1850
vn -0.7693 -0.0975 0.6314
vn -0.0761 -0.9951 0.0625
vn -0.0761 0.9951 0.0625
vn -0.7693 0.0975 0.6314
vn -0.2254 -0.9565 0.1850
vn -0.7400 0.2890 0.6073
vn -0.3658 -0.8810 0.3002
vn -0.2571 0.9565 0.1374
vn -0.8777 -0.0975 0.4691
vn -0.0869 -0.9951 0.0464
vn -0.0869 0.9951 0.0464
vn -0.8777 0.0975 0.4691
vn -0.2571 -0.9565 0.1374
vn -0.8443 0.2890 0.4513
vn -0.4173 -0.8810 0.2230
vn -0.7786 0.4696 0.4162
vn -0.5611 -0.7715 0.2999
vn -0.6831 0.6326 0.3651
vn -0.6831 -0.6326 0.3651
vn -0.5611 0.7715 0.2999
vn -0.7786 -0.4696 0.4162
vn -0.4173 0.8810 0.2230
vn -0.8443 -0.2890 0.4513
vn -0.7412 0.6326 0.2248
vn -0.7412 -0.6326 0.2248
vn -0.6088 0.7715 0.1847
vn -0.8448 -0.4696 0.2563
vn -0.4528 0.8810 0.1374
vn -0.9161 -0.2890 0.2779
vn -0.2790 0.9565 0.0846
vn -0.9524 -0.0975 0.2889
vn -0.0942 -0.9951 0.0286
vn -0.0942 0.9951 0.0286
vn -0.9524 0.0975 0.2889
vn -0.2790 -0.9565 0.0846
vn -0.9161 0.2890 0.2779
vn -0.4528 -0.8810 0.1374
vn -0.8448 0.4696 0.2563
vn -0.6088 -0.7715 0.1847
vn -0.0980 -0.9951 0.0097
vn -0.0980 0.9951 0.0097
vn -0.9904 0.0975 0.0975
vn -0.2902 -0.9565 0.0286
vn -0.9527 0.2890 0.0938
vn -0.4709 -0.8810 0.0464
vn -0.8786 0.4696 0.0865
vn -0.6332 -0.7715 0.0624
vn -0.7708 0.6326 0.0759
vn -0.7708 -0.6326 0.0759
vn -0.6332 0.7715 0.0624
vn -0.8786 -0.4696 0.0865
vn -0.4709 0.8810 0.0464
vn -0.9527 -0.2890 0.0938
vn -0.2902 0.9565 0.0286
vn -0.9904 -0.0975 0.0975
vn -0.7708 -0.6326 -0.0759
vn -0.6332 0.7715 -0.0624
vn -0.8786 -0.4696 -0.0865
vn -0.4709 0.8810 -0.0464
vn -0.9527 -0.2890 -0.0938
vn -0.2902 0.9565 -0.0286
vn -0.9904 -0.0975 -0.0976
vn -0.0980 -0.9951 -0.0097
vn -0.0980 0.9951 -0.0097
vn -0.9904 0.0975 -0.0976
vn -0.2902 -0.9565 -0.0286
vn -0.9527 0.2890 -0.0938
vn -0.4709 -0.8810 -0.0464
vn -0.8786 0.4696 -0.0865
vn -0.6332 -0.7715 -0.0624
vn -0.7708 0.6326 -0.0759
vn -0.9524 0.0975 -0.2889
vn -0.2790 -0.9565 -0.0846
vn -0.9161 0.2890 -0.2779
vn -0.4528 -0.8810 -0.1374
vn -0.8448 0.4696 -0.2563
vn -0.6088 -0.7715 -0.1847
vn -0.7412 0.6326 -0.2248
vn -0.7412 -0.6326 -0.2248
vn -0.6088 0.7715 -0.1847
vn -0.8448 -0.4696 -0.2563
vn -0.4528 0.8810 -0.1374
vn -0.9161 -0.2890 -0.2779
vn -0.2790 0.9565 -0.0846
vn -0.9524 -0.0975 -0.2889
vn -0.0942 -0.9951 -0.0286
vn -0.0942 0.9951 -0.0286
vn -0.5611 0.7715 -0.2999
vn -0.7786 -0.4696 -0.4162
vn -0.4173 0.8810 -0.2230
vn -0.8443 -0.2890 -0.4513
vn -0.2571 0.9565 -0.1374
vn -0.8777 -0.0975 -0.4691
vn -0.0869 -0.9951 -0.0464
vn -0.0869 0.9951 -0.0464
vn -0.8777 0.0975 -0.4691
vn -0.2571 -0.9565 -0.1374
vn -0.8443 0.2890 -0.4513
vn -0.4173 -0.8810 -0.2230
vn -0.7786 0.4696 -0.4162
vn -0.5611 -0.7715 -0.2999
vn -0.6831 0.6326 -0.3651
vn -0.6831 -0.6326 -0.3651
vn -0.2254 -0.9565 -0.1850
vn -0.7400 0.2890 -0.6073
vn -0.3658 -0.8810 -0.3002
vn -0.6825 0.4696 -0.5601
vn -0.4918 -0.7715 -0.4036
vn -0.5987 0.6326 -0.4913
vn -0.5987 -0.6326 -0.4913
vn -0.4918 0.7715 -0.4036
vn -0.6825 -0.4696 -0.5601
vn -0.3658 0.8810 -0.3002
vn -0.7400 -0.2890 -0.6073
vn -0.2254 0.9565 -0.1850
vn -0.7693 -0.0975 -0.6314
vn -0.0761 -0.9951 -0.0625
vn -0.0761 0.9951 -0.0625
vn -0.7693 0.0975 -0.6314
vn -0.5601 -0.4696 -0.6825
vn -0.3002 0.8810 -0.3658
vn -0.6073 -0.2890 -0.7400
vn -0.1850 0.9565 -0.2254
vn -0.6314 -0.0975 -0.7693
vn -0.0625 -0.9951 -0.0761
vn -0.0625 0.9951 -0.0761
vn -0.6314 0.0975 -0.7693
vn -0.1850 -0.9565 -0.2254
vn -0.6073 0.2890 -0.7400
vn -0.3002 -0.8810 -0.3658
vn -0.5601 0.4696 -0.6825
vn -0.4036 -0.7715 -0.4918
vn -0.4913 0.6326 -0.5987
vn -0.4913 -0.6326 -0.5987
vn -0.4036 0.7715 -0.4918
vn -0.4513 0.2890 -0.8443
vn -0.2230 -0.8810 -0.4173
vn -0.4162 0.4696 -0.7786
vn -0.2999 -0.7715 -0.5611
vn -0.3651 0.6326 -0.6831
vn -0.3651 -0.6326 -0.6831
vn -0.2999 0.7715 -0.5611
vn -0.4162 -0.4696 -0.7786
vn -0.2230 0.8810 -0.4173
vn -0.4513 -0.2890 -0.8443
vn -0.1374 0.9565 -0.2571
vn -0.4691 -0.0975 -0.8777
vn -0.0464 -0.9951 -0.0869
vn -0.0464 0.9951 -0.0869
vn -0.4691 0.0975 -0.8777
vn -0.1374 -0.9565 -0.2571
vn -0.1374 0.8810 -0.4528
vn -0.2779 -0.2890 -0.9161
vn -0.0846 0.9565 -0.2790
vn -0.2889 -0.0975 -0.9524
vn -0.0286 -0.9951 -0.0942
vn -0.0286 0.9951 -0.0942
vn -0.2889 0.0975 -0.9524
vn -0.0846 -0.9565 -0.2790
vn -0.2779 0.2890 -0.9161
vn -0.1374 -0.8810 -0.4528
vn -0.2563 0.4696 -0.8448
vn -0.1847 -0.7715 -0.6088
vn -0.2248 0.6326 -0.7412
vn -0.2248 -0.6326 -0.7412
vn -0.1847 0.7715 -0.6088
vn -0.2563 -0.4696 -0.8448
vn -0.0865 0.4696 -0.8786
vn -0.0624 -0.7715 -0.6332
vn -0.0759 0.6326 -0.7708
vn -0.0759 -0.6326 -0.7708
vn -0.0624 0.7715 -0.6332
vn -0.0865 -0.4696 -0.8786
vn -0.0464 0.8810 -0.4709
vn -0.0938 -0.2890 -0.9527
vn -0.0286 0.9565 -0.2902
vn -0.0975 -0.0975 -0.9904
vn -0.0097 -0.9951 -0.0980
vn -0.0097 0.9951 -0.0980
vn -0.0975 0.0975 -0.9904
vn -0.0286 -0.9565 -0.2902
vn -0.0938 0.2890 -0.9527
vn -0.0464 -0.8810 -0.4709
vn 0.0286 0.9565 -0.2902
vn 0.0976 -0.0975 -0.9904
vn 0.0097 -0.9951 -0.0980
vn 0.0097 0.9951 -0.0980
vn 0.0976 0.0975 -0.9904
vn 0.0286 -0.9565 -0.2902
vn 0.0938 0.2890 -0.9527
vn 0.0464 -0.8810 -0.4709
vn 0.0865 0.4696 -0.8786
vn 0.0624 -0.7715 -0.6332
vn 0.0759 0.6326 -0.7708
vn 0.0759 -0.6326 -0.7708
vn 0.0624 0.7715 -0.6332
vn 0.0865 -0.4696 -0.8786
vn 0.0464 0.8810 -0.4709
vn 0.0938 -0.2890 -0.9527
vn 0.1847 -0.7715 -0.6088
vn 0.2248 0.6326 -0.7412
vn 0.2248 -0.6326 -0.7412
vn 0.1847 0.7715 -0.6088
vn 0.2563 -0.4696 -0.8448
vn 0.1374 0.8810 -0.4528
vn 0.2779 -0.2890 -0.9161
vn 0.0846 0.9565 -0.2790
vn 0.2889 -0.0975 -0.9524
vn 0.0286 -0.9951 -0.0942
vn 0.0286 0.9951 -0.0942
vn 0.2889 0.0975 -0.9524
vn 0.0846 -0.9565 -0.2790
vn 0.2779 0.2890 -0.9161
vn 0.1374 -0.8810 -0.4528
vn 0.2563 0.4696 -0.8448
vn 0.4691 -0.0975 -0.8777
vn 0.0464 -0.9951 -0.0869
vn 0.0464 0.9951 -0.0869
vn 0.4691 0.0975 -0.8777
vn 0.1374 -0.9565 -0.2571
vn 0.4513 0.2890 -0.8443
vn 0.2231 -0.8810 -0.4173
vn 0.4162 0.4696 -0.7786
vn 0.2999 -0.7715 -0.5611
vn 0.3651 0.6326 -0.6831
vn 0.3651 -0.6326 -0.6831
vn 0.2999 0.7715 -0.5611
vn 0.4162 -0.4696 -0.7786
vn 0.2230 0.8810 -0.4173
vn 0.4513 -0.2890 -0.8443
vn 0.1374 0.9565 -0.2571
vn 0.4913 0.6326 -0.5987
vn 0.4913 -0.6326 -0.5987
vn 0.4036 0.7715 -0.4918
vn 0.5601 -0.4696 -0.6825
vn 0.3002 0.8810 -0.3658
vn 0.6073 -0.2890 -0.7400
vn 0.1850 0.9565 -0.2254
vn 0.6314 -0.0975 -0.7693
vn 0.0625 -0.9951 -0.0761
vn 0.0625 0.9951 -0.0761
vn 0.6314 0.0975 -0.7693
vn 0.1850 -0.9565 -0.2254
vn 0.6073 0.2890 -0.7400
vn 0.3002 -0.8810 -0.3658
vn 0.5601 0.4696 -0.6825
vn 0.4036 -0.7715 -0.4918
vn 0.0761 -0.9951 -0.0625
vn 0.0761 0.9951 -0.0625
vn 0.7693 0.0975 -0.6314
vn 0.2254 -0.9565 -0.1850
vn 0.7400 0.2890 -0.6073
vn 0.3658 -0.8810 -0.3002
vn 0.6825 0.4696 -0.5601
vn 0.4918 -0.7715 -0.4036
vn 0.5987 0.6326 -0.4913
vn 0.5987 -0.6326 -0.4913
vn 0.4918 0.7715 -0.4036
vn 0.6825 -0.4696 -0.5601
vn 0.3658 0.8810 -0.3002
vn 0.7400 -0.2890 -0.6073
vn 0.2254 0.9565 -0.1850
vn 0.7693 -0.0975 -0.6314
vn 0.6831 -0.6326 -0.3651
vn 0.5611 0.7715 -0.2999
vn 0.7786 -0.4696 -0.4162
vn 0.4173 0.8810 -0.2230
vn 0.8443 -0.2890 -0.4513
vn 0.2571 0.9565 -0.1374
vn 0.8777 -0.0975 -0.4691
vn 0.0869 -0.9951 -0.0464
vn 0.0869 0.9951 -0.0464
vn 0.8777 0.0975 -0.4691
vn 0.2571 -0.9565 -0.1374
vn 0.8443 0.2890 -0.4513
vn 0.4173 -0.8810 -0.2230
vn 0.7786 0.4696 -0.4162
vn 0.5611 -0.7715 -0.2999
vn 0.6831 0.6326 -0.3651
vn 0.9524 0.0975 -0.2889
vn 0.2790 -0.9565 -0.0846
vn 0.9161 0.2890 -0.2779
vn 0.4528 -0.8810 -0.1374
vn 0.8448 0.4696 -0.2563
vn 0.6088 -0.7715 -0.1847
vn 0.7412 0.6326 -0.2248
vn 0.7412 -0.6326 -0.2248
vn 0.6088 0.7715 -0.1847
vn 0.8448 -0.4696 -0.2563
vn 0.4528 0.8810 -0.1374
vn 0.9161 -0.2890 -0.2779
vn 0.2790 0.9565 -0.0846
vn 0.9524 -0.0975 -0.2889
vn 0.0942 -0.9951 -0.0286
vn 0.0942 0.9951 -0.0286
vn 0.6332 0.7715 -0.0624
vn 0.8786 -0.4696 -0.0865
vn 0.4709 0.8810 -0.0464
vn 0.9527 -0.2890 -0.0938
vn 0.2902 0.9565 -0.0286
vn 0.9904 -0.0975 -0.0975
vn 0.0980 -0.9951 -0.0097
vn 0.0980 0.9951 -0.0097
vn 0.9904 0.0975 -0.0975
vn 0.2902 -0.9565 -0.0286
vn 0.9527 0.2890 -0.0938
vn 0.4709 -0.8810 -0.0464
vn 0.8786 0.4696 -0.0865
vn 0.6332 -0.7715 -0.0624
vn 0.7708 0.6326 -0.0759
vn 0.7708 -0.6326 -0.0759
vn 0.9527 0.2890 0.0938
vn 0.4709 -0.8810 0.0464
vn 0.8786 0.4696 0.0865
vn 0.6332 -0.7715 0.0624
vn 0.7708 0.6326 0.0759
vn 0.7708 -0.6326 0.0759
vn 0.6332 0.7715 0.0624
vn 0.8786 -0.4696 0.0865
vn 0.4709 0.8810 0.0464
vn 0.9527 -0.2890 0.0938
vn 0.2902 0.9565 0.0286
vn 0.9904 -0.0975 0.0976
vn 0.0980 -0.9951 0.0097
vn 0.0980 0.9951 0.0097
vn 0.9904 0.0975 0.0976
vn 0.2902 -0.9565 0.0286
vn 0.4528 0.8810 0.1374
vn 0.9161 -0.2890 0.2779
vn 0.2790 0.9565 0.0846
vn 0.9524 -0.0975 0.2889
vn 0.0942 -0.9951 0.0286
vn 0.0942 0.9951 0.0286
vn 0.9524 0.0975 0.2889
vn 0.2790 -0.9565 0.0846
vn 0.9161 0.2890 0.2779
vn 0.4528 -0.8810 0.1374
vn 0.8448 0.4696 0.2563
vn 0.6088 -0.7715 0.1847
vn 0.7412 0.6326 0.2248
vn 0.7412 -0.6326 0.2248
vn 0.6088 0.7715 0.1847
vn 0.8448 -0.4696 0.2563
vn 0.4173 -0.8810 0.2231
vn 0.7786 0.4696 0.4162
vn 0.5611 -0.7715 0.2999
vn 0.6831 0.6326 0.3651
vn 0.6831 -0.6326 0.3651
vn 0.5611 0.7715 0.2999
vn 0.7786 -0.4696 0.4162
vn 0.4173 0.8810 0.2231
vn 0.8443 -0.2890 0.4513
vn 0.2571 0.9565 0.1374
vn 0.8777 -0.0975 0.4691
vn 0.0869 -0.9951 0.0464
vn 0.0869 0.9951 0.0464
vn 0.8777 0.0975 0.4691
vn 0.2571 -0.9565 0.1374
vn 0.8443 0.2890 0.4513
vn 0.7400 -0.2890 0.6073
vn 0.2254 0.9565 0.1850
vn 0.7693 -0.0975 0.6314
vn 0.0761 -0.9951 0.0625
vn 0.0761 0.9951 0.0625
vn 0.7693 0.0975 0.6314
vn 0.2254 -0.9565 0.1850
vn 0.7400 0.2890 0.6073
vn 0.3658 -0.8810 0.3002
vn 0.6825 0.4696 0.5601
vn 0.4918 -0.7715 0.4036
vn 0.5987 0.6326 0.4913
vn 0.5987 -0.6326 0.4913
vn 0.4918 0.7715 0.4036
vn 0.6825 -0.4696 0.5601
vn 0.3658 0.8810 0.3002
vn 0.5601 0.4696 0.6825
vn 0.4036 -0.7715 0.4918
vn 0.4913 0.6326 0.5987
vn 0.4913 -0.6326 0.5987
vn 0.4036 0.7715 0.4918
vn 0.5601 -0.4696 0.6825
vn 0.3002 0.8810 0.3658
vn 0.6073 -0.2890 0.7400
vn 0.1850 0.9565 0.2254
vn 0.6314 -0.0975 0.7693
vn 0.0625 -0.9951 0.0761
vn 0.0625 0.9951 0.0761
vn 0.6314 0.0975 0.7693
vn 0.1850 -0.9565 0.2254
vn 0.6073 0.2890 0.7400
vn 0.3002 -0.8810 0.3658
vn 0.1374 0.9565 0.2571
vn 0.4691 -0.0975 0.8777
vn 0.0464 -0.9951 0.0869
vn 0.0464 0.9951 0.0869
vn 0.4691 0.0975 0.8777
vn 0.1374 -0.9565 0.2571
vn 0.4513 0.2890 0.8443
vn 0.2230 -0.8810 0.4173
vn 0.4162 0.4696 0.7786
vn 0.2999 -0.7715 0.5611
vn 0.3651 0.6326 0.6831
vn 0.3651 -0.6326 0.6831
vn 0.2999 0.7715 0.5611
vn 0.4162 -0.4696 0.7786
vn 0.2230 0.8810 0.4173
vn 0.4513 -0.2890 0.8443
vn 0.1847 -0.7715 0.6088
vn 0.2248 0.6326 0.7412
vn 0.2248 -0.6326 0.7412
vn 0.1847 0.7715 0.6088
vn 0.2563 -0.4696 0.8448
vn 0.1374 0.8810 0.4528
vn 0.2779 -0.2890 0.9161
vn 0.0846 0.9565 0.2790
vn 0.2889 -0.0975 0.9524
vn 0.0286 -0.9951 0.0942
vn 0.0286 0.9951 0.0942
vn 0.2889 0.0975 0.9524
vn 0.0846 -0.9565 0.2790
vn 0.2779 0.2890 0.9161
vn 0.1374 -0.8810 0.4528
vn 0.2563 0.4696 0.8448
vn 0.0976 -0.0975 0.9904
vn 0.0097 -0.9951 0.0980
vn 0.0097 0.9951 0.0980
vn 0.0976 0.0975 0.9904
vn 0.0286 -0.9565 0.2902
vn 0.0938 0.2890 0.9527
vn 0.0464 -0.8810 0.4709
vn 0.0865 0.4696 0.8786
vn 0.0624 -0.7715 0.6332
vn 0.0759 0.6326 0.7708
vn 0.0759 -0.6326 0.7708
vn 0.0624 0.7715 0.6332
vn 0.0865 -0.4696 0.8786
vn 0.0464 0.8810 0.4709
vn 0.0938 -0.2890 0.9527
vn 0.0286 0.9565 0.2902
vt 0.750000 0.062500
vt 0.718750 0.062500
vt 0.718750 0.125000
vt 0.750000 0.125000
vt 0.750000 0.500000
vt 0.718750 0.500000
vt 0.718750 0.562500
vt 0.750000 0.562500
vt 0.750000 0.937500
vt 0.718750 0.937500
vt 0.734375 1.000000
vt 0.734375 0.000000
vt 0.750000 0.437500
vt 0.718750 0.437500
vt 0.750000 0.875000
vt 0.718750 0.875000
vt 0.750000 0.375000
vt 0.718750 0.375000
vt 0.750000 0.812500
vt 0.718750 0.812500
vt 0.750000 0.312500
vt 0.718750 0.312500
vt 0.750000 0.750000
vt 0.718750 0.750000
vt 0.750000 0.250000
vt 0.718750 0.250000
vt 0.750000 0.687500
vt 0.718750 0.687500
vt 0.750000 0.187500
vt 0.718750 0.187500
vt 0.750000 0.625000
vt 0.718750 0.625000
vt 0.687500 0.125000
vt 0.687500 0.187500
vt 0.687500 0.562500
vt 0.687500 0.625000
vt 0.687500 0.062500
vt 0.687500 0.500000
vt 0.687500 0.937500
vt 0.703125 1.000000
vt 0.703125 0.000000
vt 0.687500 0.437500
vt 0.687500 0.875000
vt 0.687500 0.375000
vt 0.687500 0.812500
vt 0.687500 0.312500
vt 0.687500 0.750000
vt 0.687500 0.250000
vt 0.687500 0.687500
vt 0.656250 0.812500
vt 0.656250 0.875000
vt 0.656250 0.312500
vt 0.656250 0.375000
vt 0.656250 0.750000
vt 0.656250 0.250000
vt 0.656250 0.687500
vt 0.656250 0.187500
vt 0.656250 0.625000
vt 0.656250 0.125000
vt 0.656250 0.562500
vt 0.656250 0.062500
vt 0.656250 0.500000
vt 0.656250 0.937500
vt 0.671875 1.000000
vt 0.671875 0.000000
vt 0.656250 0.437500
vt 0.625000 0.562500
vt 0.625000 0.625000
vt 0.625000 0.062500
vt 0.625000 0.125000
vt 0.625000 0.500000
vt 0.625000 0.937500
vt 0.640625 1.000000
vt 0.640625 0.000000
vt 0.625000 0.437500
vt 0.625000 0.875000
vt 0.625000 0.375000
vt 0.625000 0.812500
vt 0.625000 0.312500
vt 0.625000 0.750000
vt 0.625000 0.250000
vt 0.625000 0.687500
vt 0.625000 0.187500
vt 0.593750 0.312500
vt 0.593750 0.375000
vt 0.593750 0.750000
vt 0.593750 0.812500
vt 0.593750 0.250000
vt 0.593750 0.687500
vt 0.593750 0.187500
vt 0.593750 0.625000
vt 0.593750 0.125000
vt 0.593750 0.562500
vt 0.593750 0.062500
vt 0.593750 0.500000
vt 0.593750 0.937500
vt 0.609375 1.000000
vt 0.609375 0.000000
vt 0.593750 0.437500
vt 0.593750 0.875000
vt 0.562500 0.062500
vt 0.562500 0.125000
vt 0.562500 0.500000
vt 0.562500 0.562500
vt 0.562500 0.937500
vt 0.578125 1.000000
vt 0.578125 0.000000
vt 0.562500 0.437500
vt 0.562500 0.875000
vt 0.562500 0.375000
vt 0.562500 0.812500
vt 0.562500 0.312500
vt 0.562500 0.750000
vt 0.562500 0.250000
vt 0.562500 0.687500
vt 0.562500 0.187500
vt 0.562500 0.625000
vt 0.531250 0.250000
vt 0.531250 0.312500
vt 0.531250 0.687500
vt 0.531250 0.750000
vt 0.531250 0.187500
vt 0.531250 0.625000
vt 0.531250 0.125000
vt 0.531250 0.562500
vt 0.531250 0.062500
vt 0.531250 0.500000
vt 0.531250 0.937500
vt 0.546875 1.000000
vt 0.546875 0.000000
vt 0.531250 0.437500
vt 0.531250 0.875000
vt 0.531250 0.375000
vt 0.531250 0.812500
vt 0.500000 0.937500
vt 0.515625 1.000000
vt 0.515625 0.000000
vt 0.500000 0.062500
vt 0.500000 0.437500
vt 0.500000 0.500000
vt 0.500000 0.875000
vt 0.500000 0.375000
vt 0.500000 0.812500
vt 0.500000 0.312500
vt 0.500000 0.750000
vt 0.500000 0.250000
vt 0.500000 0.687500
vt 0.500000 0.187500
vt 0.500000 0.625000
vt 0.500000 0.125000
vt 0.500000 0.562500
vt 0.468750 0.687500
vt 0.468750 0.750000
vt 0.468750 0.187500
vt 0.468750 0.250000
vt 0.468750 0.625000
vt 0.468750 0.125000
vt 0.468750 0.562500
vt 0.468750 0.062500
vt 0.468750 0.500000
vt 0.468750 0.937500
vt 0.484375 1.000000
vt 0.484375 0.000000
vt 0.468750 0.437500
vt 0.468750 0.875000
vt 0.468750 0.375000
vt 0.468750 0.812500
vt 0.468750 0.312500
vt 0.437500 0.437500
vt 0.437500 0.500000
vt 0.437500 0.875000
vt 0.437500 0.937500
vt 0.437500 0.375000
vt 0.437500 0.812500
vt 0.437500 0.312500
vt 0.437500 0.750000
vt 0.437500 0.250000
vt 0.437500 0.687500
vt 0.437500 0.187500
vt 0.437500 0.625000
vt 0.437500 0.125000
vt 0.437500 0.562500
vt 0.437500 0.062500
vt 0.453125 1.000000
vt 0.453125 0.000000
vt 0.406250 0.187500
vt 0.406250 0.250000
vt 0.406250 0.625000
vt 0.406250 0.687500
vt 0.406250 0.125000
vt 0.406250 0.562500
vt 0.406250 0.062500
vt 0.406250 0.500000
vt 0.406250 0.937500
vt 0.421875 1.000000
vt 0.421875 0.000000
vt 0.406250 0.437500
vt 0.406250 0.875000
vt 0.406250 0.375000
vt 0.406250 0.812500
vt 0.406250 0.312500
vt 0.406250 0.750000
vt 0.375000 0.875000
vt 0.375000 0.937500
vt 0.375000 0.375000
vt 0.375000 0.437500
vt 0.375000 0.812500
vt 0.375000 0.312500
vt 0.375000 0.750000
vt 0.375000 0.250000
vt 0.375000 0.687500
vt 0.375000 0.187500
vt 0.375000 0.625000
vt 0.375000 0.125000
vt 0.375000 0.562500
vt 0.375000 0.062500
vt 0.375000 0.500000
vt 0.390625 1.000000
vt 0.390625 0.000000
vt 0.343750 0.625000
vt 0.343750 0.687500
vt 0.343750 0.125000
vt 0.343750 0.187500
vt 0.343750 0.562500
vt 0.343750 0.062500
vt 0.343750 0.500000
vt 0.343750 0.937500
vt 0.359375 1.000000
vt 0.359375 0.000000
vt 0.343750 0.437500
vt 0.343750 0.875000
vt 0.343750 0.375000
vt 0.343750 0.812500
vt 0.343750 0.312500
vt 0.343750 0.750000
vt 0.343750 0.250000
vt 0.312500 0.375000
vt 0.312500 0.437500
vt 0.312500 0.812500
vt 0.312500 0.875000
vt 0.312500 0.312500
vt 0.312500 0.750000
vt 0.312500 0.250000
vt 0.312500 0.687500
vt 0.312500 0.187500
vt 0.312500 0.625000
vt 0.312500 0.125000
vt 0.312500 0.562500
vt 0.312500 0.062500
vt 0.312500 0.500000
vt 0.312500 0.937500
vt 0.328125 1.000000
vt 0.328125 0.000000
vt 0.281250 0.125000
vt 0.281250 0.187500
vt 0.281250 0.562500
vt 0.281250 0.625000
vt 0.281250 0.062500
vt 0.281250 0.500000
vt 0.281250 0.937500
vt 0.296875 1.000000
vt 0.296875 0.000000
vt 0.281250 0.437500
vt 0.281250 0.875000
vt 0.281250 0.375000
vt 0.281250 0.812500
vt 0.281250 0.312500
vt 0.281250 0.750000
vt 0.281250 0.250000
vt 0.281250 0.687500
vt 0.250000 0.312500
vt 0.250000 0.375000
vt 0.250000 0.750000
vt 0.250000 0.812500
vt 0.250000 0.250000
vt 0.250000 0.687500
vt 0.250000 0.187500
vt 0.250000 0.625000
vt 0.250000 0.125000
vt 0.250000 0.562500
vt 0.250000 0.062500
vt 0.250000 0.500000
vt 0.250000 0.937500
vt 0.265625 1.000000
vt 0.265625 0.000000
vt 0.250000 0.437500
vt 0.250000 0.875000
vt 0.218750 0.062500
vt 0.218750 0.125000
vt 0.218750 0.500000
vt 0.218750 0.562500
vt 0.218750 0.937500
vt 0.234375 1.000000
vt 0.234375 0.000000
vt 0.218750 0.437500
vt 0.218750 0.875000
vt 0.218750 0.375000
vt 0.218750 0.812500
vt 0.218750 0.312500
vt 0.218750 0.750000
vt 0.218750 0.250000
vt 0.218750 0.687500
vt 0.218750 0.187500
vt 0.218750 0.625000
vt 0.187500 0.750000
vt 0.187500 0.812500
vt 0.187500 0.250000
vt 0.187500 0.312500
vt 0.187500 0.687500
vt 0.187500 0.187500
vt 0.187500 0.625000
vt 0.187500 0.125000
vt 0.187500 0.562500
vt 0.187500 0.062500
vt 0.187500 0.500000
vt 0.187500 0.937500
vt 0.203125 1.000000
vt 0.203125 0.000000
vt 0.187500 0.437500
vt 0.187500 0.875000
vt 0.187500 0.375000
vt 0.156250 0.500000
vt 0.156250 0.562500
vt 0.156250 0.937500
vt 0.171875 1.000000
vt 0.171875 0.000000
vt 0.156250 0.062500
vt 0.156250 0.437500
vt 0.156250 0.875000
vt 0.156250 0.375000
vt 0.156250 0.812500
vt 0.156250 0.312500
vt 0.156250 0.750000
vt 0.156250 0.250000
vt 0.156250 0.687500
vt 0.156250 0.187500
vt 0.156250 0.625000
vt 0.156250 0.125000
vt 0.125000 0.250000
vt 0.125000 0.312500
vt 0.125000 0.687500
vt 0.125000 0.750000
vt 0.125000 0.187500
vt 0.125000 0.625000
vt 0.125000 0.125000
vt 0.125000 0.562500
vt 0.125000 0.062500
vt 0.125000 0.500000
vt 0.125000 0.937500
vt 0.140625 1.000000
vt 0.140625 0.000000
vt 0.125000 0.437500
vt 0.125000 0.875000
vt 0.125000 0.375000
vt 0.125000 0.812500
vt 0.093750 0.937500
vt 0.109375 1.000000
vt 0.109375 0.000000
vt 0.093750 0.062500
vt 0.093750 0.437500
vt 0.093750 0.500000
vt 0.093750 0.875000
vt 0.093750 0.375000
vt 0.093750 0.812500
vt 0.093750 0.312500
vt 0.093750 0.750000
vt 0.093750 0.250000
vt 0.093750 0.687500
vt 0.093750 0.187500
vt 0.093750 0.625000
vt 0.093750 0.125000
vt 0.093750 0.562500
vt 0.062500 0.687500
vt 0.062500 0.750000
vt 0.062500 0.187500
vt 0.062500 0.250000
vt 0.062500 0.625000
vt 0.062500 0.125000
vt 0.062500 0.562500
vt 0.062500 0.062500
vt 0.062500 0.500000
vt 0.062500 0.937500
vt 0.078125 1.000000
vt 0.078125 0.000000
vt 0.062500 0.437500
vt 0.062500 0.875000
vt 0.062500 0.375000
vt 0.062500 0.812500
vt 0.062500 0.312500
vt 0.031250 0.437500
vt 0.031250 0.500000
vt 0.031250 0.875000
vt 0.031250 0.937500
vt 0.031250 0.375000
vt 0.031250 0.812500
vt 0.031250 0.312500
vt 0.031250 0.750000
vt 0.031250 0.250000
vt 0.031250 0.687500
vt 0.031250 0.187500
vt 0.031250 0.625000
vt 0.031250 0.125000
vt 0.031250 0.562500
vt 0.031250 0.062500
vt 0.046875 1.000000
vt 0.046875 0.000000
vt 0.000000 0.187500
vt 0.000000 0.250000
vt 0.000000 0.625000
vt 0.000000 0.687500
vt 0.000000 0.125000
vt 0.000000 0.562500
vt 0.000000 0.062500
vt 0.000000 0.500000
vt 0.000000 0.937500
vt 0.015625 1.000000
vt 0.015625 0.000000
vt 0.000000 0.437500
vt 0.000000 0.875000
vt 0.000000 0.375000
vt 0.000000 0.812500
vt 0.000000 0.312500
vt 0.000000 0.750000
vt 1.000000 0.375000
vt 0.968750 0.375000
vt 0.968750 0.437500
vt 1.000000 0.437500
vt 1.000000 0.812500
vt 0.968750 0.812500
vt 0.968750 0.875000
vt 1.000000 0.875000
vt 1.000000 0.312500
vt 0.968750 0.312500
vt 1.000000 0.750000
vt 0.968750 0.750000
vt 1.000000 0.250000
vt 0.968750 0.250000
vt 1.000000 0.687500
vt 0.968750 0.687500
vt 1.000000 0.187500
vt 0.968750 0.187500
vt 1.000000 0.625000
vt 0.968750 0.625000
vt 1.000000 0.125000
vt 0.968750 0.125000
vt 1.000000 0.562500
vt 0.968750 0.562500
vt 1.000000 0.062500
vt 0.968750 0.062500
vt 1.000000 0.500000
vt 0.968750 0.500000
vt 1.000000 0.937500
vt 0.968750 0.937500
vt 0.984375 1.000000
vt 0.984375 0.000000
vt 0.937500 0.125000
vt 0.937500 0.187500
vt 0.937500 0.562500
vt 0.937500 0.625000
vt 0.937500 0.062500
vt 0.937500 0.500000
vt 0.937500 0.937500
vt 0.953125 1.000000
vt 0.953125 0.000000
vt 0.937500 0.437500
vt 0.937500 0.875000
vt 0.937500 0.375000
vt 0.937500 0.812500
vt 0.937500 0.312500
vt 0.937500 0.750000
vt 0.937500 0.250000
vt 0.937500 0.687500
vt 0.906250 0.812500
vt 0.906250 0.875000
vt 0.906250 0.312500
vt 0.906250 0.375000
vt 0.906250 0.750000
vt 0.906250 0.250000
vt 0.906250 0.687500
vt 0.906250 0.187500
vt 0.906250 0.625000
vt 0.906250 0.125000
vt 0.906250 0.562500
vt 0.906250 0.062500
vt 0.906250 0.500000
vt 0.906250 0.937500
vt 0.921875 1.000000
vt 0.921875 0.000000
vt 0.906250 0.437500
vt 0.875000 0.562500
vt 0.875000 0.625000
vt 0.875000 0.062500
vt 0.875000 0.125000
vt 0.875000 0.500000
vt 0.875000 0.937500
vt 0.890625 1.000000
vt 0.890625 0.000000
vt 0.875000 0.437500
vt 0.875000 0.875000
vt 0.875000 0.375000
vt 0.875000 0.812500
vt 0.875000 0.312500
vt 0.875000 0.750000
vt 0.875000 0.250000
vt 0.875000 0.687500
vt 0.875000 0.187500
vt 0.843750 0.312500
vt 0.843750 0.375000
vt 0.843750 0.750000
vt 0.843750 0.812500
vt 0.843750 0.250000
vt 0.843750 0.687500
vt 0.843750 0.187500
vt 0.843750 0.625000
vt 0.843750 0.125000
vt 0.843750 0.562500
vt 0.843750 0.062500
vt 0.843750 0.500000
vt 0.843750 0.937500
vt 0.859375 1.000000
vt 0.859375 0.000000
vt 0.843750 0.437500
vt 0.843750 0.875000
vt 0.812500 0.062500
vt 0.812500 0.125000
vt 0.812500 0.500000
vt 0.812500 0.562500
vt 0.812500 0.937500
vt 0.828125 1.000000
vt 0.828125 0.000000
vt 0.812500 0.437500
vt 0.812500 0.875000
vt 0.812500 0.375000
vt 0.812500 0.812500
vt 0.812500 0.312500
vt 0.812500 0.750000
vt 0.812500 0.250000
vt 0.812500 0.687500
vt 0.812500 0.187500
vt 0.812500 0.625000
vt 0.781250 0.750000
vt 0.781250 0.812500
vt 0.781250 0.250000
vt 0.781250 0.312500
vt 0.781250 0.687500
vt 0.781250 0.187500
vt 0.781250 0.625000
vt 0.781250 0.125000
vt 0.781250 0.562500
vt 0.781250 0.062500
vt 0.781250 0.500000
vt 0.781250 0.937500
vt 0.796875 1.000000
vt 0.796875 0.000000
vt 0.781250 0.437500
vt 0.781250 0.875000
vt 0.781250 0.375000
vt 0.765625 1.000000
vt 0.765625 0.000000
s 0
usemtl Material.001
f 482/1/1 21/2/1 20/3/1 481/4/1
f 4/5/2 14/6/2 13/7/2 3/8/2
f 474/9/3 7/10/3 82/11/3
f 308/12/4 21/2/4 482/1/4
f 5/13/5 15/14/5 14/6/5 4/5/5
f 475/15/6 8/16/6 7/10/6 474/9/6
f 478/17/7 16/18/7 15/14/7 5/13/7
f 1/19/8 9/20/8 8/16/8 475/15/8
f 6/21/9 17/22/9 16/18/9 478/17/9
f 476/23/10 10/24/10 9/20/10 1/19/10
f 479/25/11 18/26/11 17/22/11 6/21/11
f 2/27/12 11/28/12 10/24/12 476/23/12
f 480/29/13 19/30/13 18/26/13 479/25/13
f 477/31/14 12/32/14 11/28/14 2/27/14
f 481/4/15 20/3/15 19/30/15 480/29/15
f 3/8/16 13/7/16 12/32/16 477/31/16
f 20/3/17 35/33/17 34/34/17 19/30/17
f 13/7/18 28/35/18 27/36/18 12/32/18
f 21/2/19 36/37/19 35/33/19 20/3/19
f 14/6/20 29/38/20 28/35/20 13/7/20
f 7/10/21 22/39/21 82/40/21
f 308/41/22 36/37/22 21/2/22
f 15/14/23 30/42/23 29/38/23 14/6/23
f 8/16/24 23/43/24 22/39/24 7/10/24
f 16/18/25 31/44/25 30/42/25 15/14/25
f 9/20/26 24/45/26 23/43/26 8/16/26
f 17/22/27 32/46/27 31/44/27 16/18/27
f 10/24/28 25/47/28 24/45/28 9/20/28
f 18/26/29 33/48/29 32/46/29 17/22/29
f 11/28/30 26/49/30 25/47/30 10/24/30
f 19/30/31 34/34/31 33/48/31 18/26/31
f 12/32/32 27/36/32 26/49/32 11/28/32
f 24/45/33 39/50/33 38/51/33 23/43/33
f 32/46/34 47/52/34 46/53/34 31/44/34
f 25/47/35 40/54/35 39/50/35 24/45/35
f 33/48/36 48/55/36 47/52/36 32/46/36
f 26/49/37 41/56/37 40/54/37 25/47/37
f 34/34/38 49/57/38 48/55/38 33/48/38
f 27/36/39 42/58/39 41/56/39 26/49/39
f 35/33/40 50/59/40 49/57/40 34/34/40
f 28/35/41 43/60/41 42/58/41 27/36/41
f 36/37/42 51/61/42 50/59/42 35/33/42
f 29/38/43 44/62/43 43/60/43 28/35/43
f 22/39/44 37/63/44 82/64/44
f 308/65/45 51/61/45 36/37/45
f 30/42/46 45/66/46 44/62/46 29/38/46
f 23/43/47 38/51/47 37/63/47 22/39/47
f 31/44/48 46/53/48 45/66/48 30/42/48
f 43/60/49 58/67/49 57/68/49 42/58/49
f 51/61/50 66/69/50 65/70/50 50/59/50
f 44/62/51 59/71/51 58/67/51 43/60/51
f 37/63/52 52/72/52 82/73/52
f 308/74/53 66/69/53 51/61/53
f 45/66/54 60/75/54 59/71/54 44/62/54
f 38/51/55 53/76/55 52/72/55 37/63/55
f 46/53/56 61/77/56 60/75/56 45/66/56
f 39/50/57 54/78/57 53/76/57 38/51/57
f 47/52/58 62/79/58 61/77/58 46/53/58
f 40/54/59 55/80/59 54/78/59 39/50/59
f 48/55/60 63/81/60 62/79/60 47/52/60
f 41/56/61 56/82/61 55/80/61 40/54/61
f 49/57/62 64/83/62 63/81/62 48/55/62
f 42/58/63 57/68/63 56/82/63 41/56/63
f 50/59/64 65/70/64 64/83/64 49/57/64
f 62/79/65 77/84/65 76/85/65 61/77/65
f 55/80/66 70/86/66 69/87/66 54/78/66
f 63/81/67 78/88/67 77/84/67 62/79/67
f 56/82/68 71/89/68 70/86/68 55/80/68
f 64/83/69 79/90/69 78/88/69 63/81/69
f 57/68/70 72/91/70 71/89/70 56/82/70
f 65/70/71 80/92/71 79/90/71 64/83/71
f 58/67/72 73/93/72 72/91/72 57/68/72
f 66/69/73 81/94/73 80/92/73 65/70/73
f 59/71/74 74/95/74 73/93/74 58/67/74
f 52/72/75 67/96/75 82/97/75
f 308/98/76 81/94/76 66/69/76
f 60/75/77 75/99/77 74/95/77 59/71/77
f 53/76/78 68/100/78 67/96/78 52/72/78
f 61/77/79 76/85/79 75/99/79 60/75/79
f 54/78/80 69/87/80 68/100/80 53/76/80
f 81/94/81 97/101/81 96/102/81 80/92/81
f 74/95/82 90/103/82 89/104/82 73/93/82
f 67/96/83 83/105/83 82/106/83
f 308/107/84 97/101/84 81/94/84
f 75/99/85 91/108/85 90/103/85 74/95/85
f 68/100/86 84/109/86 83/105/86 67/96/86
f 76/85/87 92/110/87 91/108/87 75/99/87
f 69/87/88 85/111/88 84/109/88 68/100/88
f 77/84/89 93/112/89 92/110/89 76/85/89
f 70/86/90 86/113/90 85/111/90 69/87/90
f 78/88/91 94/114/91 93/112/91 77/84/91
f 71/89/92 87/115/92 86/113/92 70/86/92
f 79/90/93 95/116/93 94/114/93 78/88/93
f 72/91/94 88/117/94 87/115/94 71/89/94
f 80/92/95 96/102/95 95/116/95 79/90/95
f 73/93/96 89/104/96 88/117/96 72/91/96
f 94/114/97 109/118/97 108/119/97 93/112/97
f 87/115/98 102/120/98 101/121/98 86/113/98
f 95/116/99 110/122/99 109/118/99 94/114/99
f 88/117/100 103/123/100 102/120/100 87/115/100
f 96/102/101 111/124/101 110/122/101 95/116/101
f 89/104/102 104/125/102 103/123/102 88/117/102
f 97/101/103 112/126/103 111/124/103 96/102/103
f 90/103/104 105/127/104 104/125/104 89/104/104
f 83/105/105 98/128/105 82/129/105
f 308/130/106 112/126/106 97/101/106
f 91/108/107 106/131/107 105/127/107 90/103/107
f 84/109/108 99/132/108 98/128/108 83/105/108
f 92/110/109 107/133/109 106/131/109 91/108/109
f 85/111/110 100/134/110 99/132/110 84/109/110
f 93/112/111 108/119/111 107/133/111 92/110/111
f 86/113/112 101/121/112 100/134/112 85/111/112
f 98/128/113 113/135/113 82/136/113
f 308/137/114 127/138/114 112/126/114
f 106/131/115 121/139/115 120/140/115 105/127/115
f 99/132/116 114/141/116 113/135/116 98/128/116
f 107/133/117 122/142/117 121/139/117 106/131/117
f 100/134/118 115/143/118 114/141/118 99/132/118
f 108/119/119 123/144/119 122/142/119 107/133/119
f 101/121/120 116/145/120 115/143/120 100/134/120
f 109/118/121 124/146/121 123/144/121 108/119/121
f 102/120/122 117/147/122 116/145/122 101/121/122
f 110/122/123 125/148/123 124/146/123 109/118/123
f 103/123/124 118/149/124 117/147/124 102/120/124
f 111/124/125 126/150/125 125/148/125 110/122/125
f 104/125/126 119/151/126 118/149/126 103/123/126
f 112/126/127 127/138/127 126/150/127 111/124/127
f 105/127/128 120/140/128 119/151/128 104/125/128
f 117/147/129 132/152/129 131/153/129 116/145/129
f 125/148/130 140/154/130 139/155/130 124/146/130
f 118/149/131 133/156/131 132/152/131 117/147/131
f 126/150/132 141/157/132 140/154/132 125/148/132
f 119/151/133 134/158/133 133/156/133 118/149/133
f 127/138/134 142/159/134 141/157/134 126/150/134
f 120/140/135 135/160/135 134/158/135 119/151/135
f 113/135/136 128/161/136 82/162/136
f 308/163/137 142/159/137 127/138/137
f 121/139/138 136/164/138 135/160/138 120/140/138
f 114/141/139 129/165/139 128/161/139 113/135/139
f 122/142/140 137/166/140 136/164/140 121/139/140
f 115/143/141 130/167/141 129/165/141 114/141/141
f 123/144/142 138/168/142 137/166/142 122/142/142
f 116/145/143 131/153/143 130/167/143 115/143/143
f 124/146/144 139/155/144 138/168/144 123/144/144
f 136/164/145 151/169/145 150/170/145 135/160/145
f 129/165/146 144/171/146 143/172/146 128/161/146
f 137/166/147 152/173/147 151/169/147 136/164/147
f 130/167/148 145/174/148 144/171/148 129/165/148
f 138/168/149 153/175/149 152/173/149 137/166/149
f 131/153/150 146/176/150 145/174/150 130/167/150
f 139/155/151 154/177/151 153/175/151 138/168/151
f 132/152/152 147/178/152 146/176/152 131/153/152
f 140/154/153 155/179/153 154/177/153 139/155/153
f 133/156/154 148/180/154 147/178/154 132/152/154
f 141/157/155 156/181/155 155/179/155 140/154/155
f 134/158/156 149/182/156 148/180/156 133/156/156
f 142/159/157 157/183/157 156/181/157 141/157/157
f 135/160/158 150/170/158 149/182/158 134/158/158
f 128/161/159 143/172/159 82/184/159
f 308/185/160 157/183/160 142/159/160
f 155/179/161 170/186/161 169/187/161 154/177/161
f 148/180/162 163/188/162 162/189/162 147/178/162
f 156/181/163 171/190/163 170/186/163 155/179/163
f 149/182/164 164/191/164 163/188/164 148/180/164
f 157/183/165 172/192/165 171/190/165 156/181/165
f 150/170/166 165/193/166 164/191/166 149/182/166
f 143/172/167 158/194/167 82/195/167
f 308/196/168 172/192/168 157/183/168
f 151/169/169 166/197/169 165/193/169 150/170/169
f 144/171/170 159/198/170 158/194/170 143/172/170
f 152/173/171 167/199/171 166/197/171 151/169/171
f 145/174/172 160/200/172 159/198/172 144/171/172
f 153/175/173 168/201/173 167/199/173 152/173/173
f 146/176/174 161/202/174 160/200/174 145/174/174
f 154/177/175 169/187/175 168/201/175 153/175/175
f 147/178/176 162/189/176 161/202/176 146/176/176
f 159/198/177 174/203/177 173/204/177 158/194/177
f 167/199/178 182/205/178 181/206/178 166/197/178
f 160/200/179 175/207/179 174/203/179 159/198/179
f 168/201/180 183/208/180 182/205/180 167/199/180
f 161/202/181 176/209/181 175/207/181 160/200/181
f 169/187/182 184/210/182 183/208/182 168/201/182
f 162/189/183 177/211/183 176/209/183 161/202/183
f 170/186/184 185/212/184 184/210/184 169/187/184
f 163/188/185 178/213/185 177/211/185 162/189/185
f 171/190/186 186/214/186 185/212/186 170/186/186
f 164/191/187 179/215/187 178/213/187 163/188/187
f 172/192/188 187/216/188 186/214/188 171/190/188
f 165/193/189 180/217/189 179/215/189 164/191/189
f 158/194/190 173/204/190 82/218/190
f 308/219/191 187/216/191 172/192/191
f 166/197/192 181/206/192 180/217/192 165/193/192
f 178/213/193 193/220/193 192/221/193 177/211/193
f 186/214/194 201/222/194 200/223/194 185/212/194
f 179/215/195 194/224/195 193/220/195 178/213/195
f 187/216/196 202/225/196 201/222/196 186/214/196
f 180/217/197 195/226/197 194/224/197 179/215/197
f 173/204/198 188/227/198 82/228/198
f 308/229/199 202/225/199 187/216/199
f 181/206/200 196/230/200 195/226/200 180/217/200
f 174/203/201 189/231/201 188/227/201 173/204/201
f 182/205/202 197/232/202 196/230/202 181/206/202
f 175/207/203 190/233/203 189/231/203 174/203/203
f 183/208/204 198/234/204 197/232/204 182/205/204
f 176/209/205 191/235/205 190/233/205 175/207/205
f 184/210/206 199/236/206 198/234/206 183/208/206
f 177/211/207 192/221/207 191/235/207 176/209/207
f 185/212/208 200/223/208 199/236/208 184/210/208
f 197/232/209 212/237/209 211/238/209 196/230/209
f 190/233/210 205/239/210 204/240/210 189/231/210
f 198/234/211 213/241/211 212/237/211 197/232/211
f 191/235/212 206/242/212 205/239/212 190/233/212
f 199/236/213 214/243/213 213/241/213 198/234/213
f 192/221/214 207/244/214 206/242/214 191/235/214
f 200/223/215 215/245/215 214/243/215 199/236/215
f 193/220/216 208/246/216 207/244/216 192/221/216
f 201/222/217 216/247/217 215/245/217 200/223/217
f 194/224/218 209/248/218 208/246/218 193/220/218
f 202/225/219 217/249/219 216/247/219 201/222/219
f 195/226/220 210/250/220 209/248/220 194/224/220
f 188/227/221 203/251/221 82/252/221
f 308/253/222 217/249/222 202/225/222
f 196/230/223 211/238/223 210/250/223 195/226/223
f 189/231/224 204/240/224 203/251/224 188/227/224
f 216/247/225 231/254/225 230/255/225 215/245/225
f 209/248/226 224/256/226 223/257/226 208/246/226
f 217/249/227 232/258/227 231/254/227 216/247/227
f 210/250/228 225/259/228 224/256/228 209/248/228
f 203/251/229 218/260/229 82/261/229
f 308/262/230 232/258/230 217/249/230
f 211/238/231 226/263/231 225/259/231 210/250/231
f 204/240/232 219/264/232 218/260/232 203/251/232
f 212/237/233 227/265/233 226/263/233 211/238/233
f 205/239/234 220/266/234 219/264/234 204/240/234
f 213/241/235 228/267/235 227/265/235 212/237/235
f 206/242/236 221/268/236 220/266/236 205/239/236
f 214/243/237 229/269/237 228/267/237 213/241/237
f 207/244/238 222/270/238 221/268/238 206/242/238
f 215/245/239 230/255/239 229/269/239 214/243/239
f 208/246/240 223/257/240 222/270/240 207/244/240
f 228/267/241 243/271/241 242/272/241 227/265/241
f 221/268/242 236/273/242 235/274/242 220/266/242
f 229/269/243 244/275/243 243/271/243 228/267/243
f 222/270/244 237/276/244 236/273/244 221/268/244
f 230/255/245 245/277/245 244/275/245 229/269/245
f 223/257/246 238/278/246 237/276/246 222/270/246
f 231/254/247 246/279/247 245/277/247 230/255/247
f 224/256/248 239/280/248 238/278/248 223/257/248
f 232/258/249 247/281/249 246/279/249 231/254/249
f 225/259/250 240/282/250 239/280/250 224/256/250
f 218/260/251 233/283/251 82/284/251
f 308/285/252 247/281/252 232/258/252
f 226/263/253 241/286/253 240/282/253 225/259/253
f 219/264/254 234/287/254 233/283/254 218/260/254
f 227/265/255 242/272/255 241/286/255 226/263/255
f 220/266/256 235/274/256 234/287/256 219/264/256
f 247/281/257 262/288/257 261/289/257 246/279/257
f 240/282/258 255/290/258 254/291/258 239/280/258
f 233/283/259 248/292/259 82/293/259
f 308/294/260 262/288/260 247/281/260
f 241/286/261 256/295/261 255/290/261 240/282/261
f 234/287/262 249/296/262 248/292/262 233/283/262
f 242/272/263 257/297/263 256/295/263 241/286/263
f 235/274/264 250/298/264 249/296/264 234/287/264
f 243/271/265 258/299/265 257/297/265 242/272/265
f 236/273/266 251/300/266 250/298/266 235/274/266
f 244/275/267 259/301/267 258/299/267 243/271/267
f 237/276/268 252/302/268 251/300/268 236/273/268
f 245/277/269 260/303/269 259/301/269 244/275/269
f 238/278/270 253/304/270 252/302/270 237/276/270
f 246/279/271 261/289/271 260/303/271 245/277/271
f 239/280/272 254/291/272 253/304/272 238/278/272
f 251/300/273 266/305/273 265/306/273 250/298/273
f 259/301/274 274/307/274 273/308/274 258/299/274
f 252/302/275 267/309/275 266/305/275 251/300/275
f 260/303/276 275/310/276 274/307/276 259/301/276
f 253/304/277 268/311/277 267/309/277 252/302/277
f 261/289/278 276/312/278 275/310/278 260/303/278
f 254/291/279 269/313/279 268/311/279 253/304/279
f 262/288/280 277/314/280 276/312/280 261/289/280
f 255/290/281 270/315/281 269/313/281 254/291/281
f 248/292/282 263/316/282 82/317/282
f 308/318/283 277/314/283 262/288/283
f 256/295/284 271/319/284 270/315/284 255/290/284
f 249/296/285 264/320/285 263/316/285 248/292/285
f 257/297/286 272/321/286 271/319/286 256/295/286
f 250/298/287 265/306/287 264/320/287 249/296/287
f 258/299/288 273/308/288 272/321/288 257/297/288
f 270/315/289 285/322/289 284/323/289 269/313/289
f 263/316/290 278/324/290 82/325/290
f 308/326/291 292/327/291 277/314/291
f 271/319/292 286/328/292 285/322/292 270/315/292
f 264/320/293 279/329/293 278/324/293 263/316/293
f 272/321/294 287/330/294 286/328/294 271/319/294
f 265/306/295 280/331/295 279/329/295 264/320/295
f 273/308/296 288/332/296 287/330/296 272/321/296
f 266/305/297 281/333/297 280/331/297 265/306/297
f 274/307/298 289/334/298 288/332/298 273/308/298
f 267/309/299 282/335/299 281/333/299 266/305/299
f 275/310/300 290/336/300 289/334/300 274/307/300
f 268/311/301 283/337/301 282/335/301 267/309/301
f 276/312/302 291/338/302 290/336/302 275/310/302
f 269/313/303 284/323/303 283/337/303 268/311/303
f 277/314/304 292/327/304 291/338/304 276/312/304
f 289/334/305 304/339/305 303/340/305 288/332/305
f 282/335/306 297/341/306 296/342/306 281/333/306
f 290/336/307 305/343/307 304/339/307 289/334/307
f 283/337/308 298/344/308 297/341/308 282/335/308
f 291/338/309 306/345/309 305/343/309 290/336/309
f 284/323/310 299/346/310 298/344/310 283/337/310
f 292/327/311 307/347/311 306/345/311 291/338/311
f 285/322/312 300/348/312 299/346/312 284/323/312
f 278/324/313 293/349/313 82/350/313
f 308/351/314 307/347/314 292/327/314
f 286/328/315 301/352/315 300/348/315 285/322/315
f 279/329/316 294/353/316 293/349/316 278/324/316
f 287/330/317 302/354/317 301/352/317 286/328/317
f 280/331/318 295/355/318 294/353/318 279/329/318
f 288/332/319 303/340/319 302/354/319 287/330/319
f 281/333/320 296/342/320 295/355/320 280/331/320
f 293/349/321 309/356/321 82/357/321
f 308/358/322 323/359/322 307/347/322
f 301/352/323 317/360/323 316/361/323 300/348/323
f 294/353/324 310/362/324 309/356/324 293/349/324
f 302/354/325 318/363/325 317/360/325 301/352/325
f 295/355/326 311/364/326 310/362/326 294/353/326
f 303/340/327 319/365/327 318/363/327 302/354/327
f 296/342/328 312/366/328 311/364/328 295/355/328
f 304/339/329 320/367/329 319/365/329 303/340/329
f 297/341/330 313/368/330 312/366/330 296/342/330
f 305/343/331 321/369/331 320/367/331 304/339/331
f 298/344/332 314/370/332 313/368/332 297/341/332
f 306/345/333 322/371/333 321/369/333 305/343/333
f 299/346/334 315/372/334 314/370/334 298/344/334
f 307/347/335 323/359/335 322/371/335 306/345/335
f 300/348/336 316/361/336 315/372/336 299/346/336
f 313/368/337 328/373/337 327/374/337 312/366/337
f 321/369/338 336/375/338 335/376/338 320/367/338
f 314/370/339 329/377/339 328/373/339 313/368/339
f 322/371/340 337/378/340 336/375/340 321/369/340
f 315/372/341 330/379/341 329/377/341 314/370/341
f 323/359/342 338/380/342 337/378/342 322/371/342
f 316/361/343 331/381/343 330/379/343 315/372/343
f 309/356/344 324/382/344 82/383/344
f 308/384/345 338/380/345 323/359/345
f 317/360/346 332/385/346 331/381/346 316/361/346
f 310/362/347 325/386/347 324/382/347 309/356/347
f 318/363/348 333/387/348 332/385/348 317/360/348
f 311/364/349 326/388/349 325/386/349 310/362/349
f 319/365/350 334/389/350 333/387/350 318/363/350
f 312/366/351 327/374/351 326/388/351 311/364/351
f 320/367/352 335/376/352 334/389/352 319/365/352
f 332/385/353 347/390/353 346/391/353 331/381/353
f 325/386/354 340/392/354 339/393/354 324/382/354
f 333/387/355 348/394/355 347/390/355 332/385/355
f 326/388/356 341/395/356 340/392/356 325/386/356
f 334/389/357 349/396/357 348/394/357 333/387/357
f 327/374/358 342/397/358 341/395/358 326/388/358
f 335/376/359 350/398/359 349/396/359 334/389/359
f 328/373/360 343/399/360 342/397/360 327/374/360
f 336/375/361 351/400/361 350/398/361 335/376/361
f 329/377/362 344/401/362 343/399/362 328/373/362
f 337/378/363 352/402/363 351/400/363 336/375/363
f 330/379/364 345/403/364 344/401/364 329/377/364
f 338/380/365 353/404/365 352/402/365 337/378/365
f 331/381/366 346/391/366 345/403/366 330/379/366
f 324/382/367 339/393/367 82/405/367
f 308/406/368 353/404/368 338/380/368
f 351/400/369 366/407/369 365/408/369 350/398/369
f 344/401/370 359/409/370 358/410/370 343/399/370
f 352/402/371 367/411/371 366/407/371 351/400/371
f 345/403/372 360/412/372 359/409/372 344/401/372
f 353/404/373 368/413/373 367/411/373 352/402/373
f 346/391/374 361/414/374 360/412/374 345/403/374
f 339/393/375 354/415/375 82/416/375
f 308/417/376 368/413/376 353/404/376
f 347/390/377 362/418/377 361/414/377 346/391/377
f 340/392/378 355/419/378 354/415/378 339/393/378
f 348/394/379 363/420/379 362/418/379 347/390/379
f 341/395/380 356/421/380 355/419/380 340/392/380
f 349/396/381 364/422/381 363/420/381 348/394/381
f 342/397/382 357/423/382 356/421/382 341/395/382
f 350/398/383 365/408/383 364/422/383 349/396/383
f 343/399/384 358/410/384 357/423/384 342/397/384
f 363/424/385 378/425/385 377/426/385 362/427/385
f 356/428/386 371/429/386 370/430/386 355/431/386
f 364/432/387 379/433/387 378/425/387 363/424/387
f 357/434/388 372/435/388 371/429/388 356/428/388
f 365/436/389 380/437/389 379/433/389 364/432/389
f 358/438/390 373/439/390 372/435/390 357/434/390
f 366/440/391 381/441/391 380/437/391 365/436/391
f 359/442/392 374/443/392 373/439/392 358/438/392
f 367/444/393 382/445/393 381/441/393 366/440/393
f 360/446/394 375/447/394 374/443/394 359/442/394
f 368/448/395 383/449/395 382/445/395 367/444/395
f 361/450/396 376/451/396 375/447/396 360/446/396
f 354/452/397 369/453/397 82/454/397
f 308/455/398 383/449/398 368/448/398
f 362/427/399 377/426/399 376/451/399 361/450/399
f 355/431/400 370/430/400 369/453/400 354/452/400
f 382/445/401 397/456/401 396/457/401 381/441/401
f 375/447/402 390/458/402 389/459/402 374/443/402
f 383/449/403 398/460/403 397/456/403 382/445/403
f 376/451/404 391/461/404 390/458/404 375/447/404
f 369/453/405 384/462/405 82/463/405
f 308/464/406 398/460/406 383/449/406
f 377/426/407 392/465/407 391/461/407 376/451/407
f 370/430/408 385/466/408 384/462/408 369/453/408
f 378/425/409 393/467/409 392/465/409 377/426/409
f 371/429/410 386/468/410 385/466/410 370/430/410
f 379/433/411 394/469/411 393/467/411 378/425/411
f 372/435/412 387/470/412 386/468/412 371/429/412
f 380/437/413 395/471/413 394/469/413 379/433/413
f 373/439/414 388/472/414 387/470/414 372/435/414
f 381/441/415 396/457/415 395/471/415 380/437/415
f 374/443/416 389/459/416 388/472/416 373/439/416
f 386/468/417 401/473/417 400/474/417 385/466/417
f 394/469/418 409/475/418 408/476/418 393/467/418
f 387/470/419 402/477/419 401/473/419 386/468/419
f 395/471/420 410/478/420 409/475/420 394/469/420
f 388/472/421 403/479/421 402/477/421 387/470/421
f 396/457/422 411/480/422 410/478/422 395/471/422
f 389/459/423 404/481/423 403/479/423 388/472/423
f 397/456/424 412/482/424 411/480/424 396/457/424
f 390/458/425 405/483/425 404/481/425 389/459/425
f 398/460/426 413/484/426 412/482/426 397/456/426
f 391/461/427 406/485/427 405/483/427 390/458/427
f 384/462/428 399/486/428 82/487/428
f 308/488/429 413/484/429 398/460/429
f 392/465/430 407/489/430 406/485/430 391/461/430
f 385/466/431 400/474/431 399/486/431 384/462/431
f 393/467/432 408/476/432 407/489/432 392/465/432
f 405/483/433 420/490/433 419/491/433 404/481/433
f 413/484/434 428/492/434 427/493/434 412/482/434
f 406/485/435 421/494/435 420/490/435 405/483/435
f 399/486/436 414/495/436 82/496/436
f 308/497/437 428/492/437 413/484/437
f 407/489/438 422/498/438 421/494/438 406/485/438
f 400/474/439 415/499/439 414/495/439 399/486/439
f 408/476/440 423/500/440 422/498/440 407/489/440
f 401/473/441 416/501/441 415/499/441 400/474/441
f 409/475/442 424/502/442 423/500/442 408/476/442
f 402/477/443 417/503/443 416/501/443 401/473/443
f 410/478/444 425/504/444 424/502/444 409/475/444
f 403/479/445 418/505/445 417/503/445 402/477/445
f 411/480/446 426/506/446 425/504/446 410/478/446
f 404/481/447 419/491/447 418/505/447 403/479/447
f 412/482/448 427/493/448 426/506/448 411/480/448
f 424/502/449 439/507/449 438/508/449 423/500/449
f 417/503/450 432/509/450 431/510/450 416/501/450
f 425/504/451 440/511/451 439/507/451 424/502/451
f 418/505/452 433/512/452 432/509/452 417/503/452
f 426/506/453 441/513/453 440/511/453 425/504/453
f 419/491/454 434/514/454 433/512/454 418/505/454
f 427/493/455 442/515/455 441/513/455 426/506/455
f 420/490/456 435/516/456 434/514/456 419/491/456
f 428/492/457 443/517/457 442/515/457 427/493/457
f 421/494/458 436/518/458 435/516/458 420/490/458
f 414/495/459 429/519/459 82/520/459
f 308/521/460 443/517/460 428/492/460
f 422/498/461 437/522/461 436/518/461 421/494/461
f 415/499/462 430/523/462 429/519/462 414/495/462
f 423/500/463 438/508/463 437/522/463 422/498/463
f 416/501/464 431/510/464 430/523/464 415/499/464
f 443/517/465 458/524/465 457/525/465 442/515/465
f 436/518/466 451/526/466 450/527/466 435/516/466
f 429/519/467 444/528/467 82/529/467
f 308/530/468 458/524/468 443/517/468
f 437/522/469 452/531/469 451/526/469 436/518/469
f 430/523/470 445/532/470 444/528/470 429/519/470
f 438/508/471 453/533/471 452/531/471 437/522/471
f 431/510/472 446/534/472 445/532/472 430/523/472
f 439/507/473 454/535/473 453/533/473 438/508/473
f 432/509/474 447/536/474 446/534/474 431/510/474
f 440/511/475 455/537/475 454/535/475 439/507/475
f 433/512/476 448/538/476 447/536/476 432/509/476
f 441/513/477 456/539/477 455/537/477 440/511/477
f 434/514/478 449/540/478 448/538/478 433/512/478
f 442/515/479 457/525/479 456/539/479 441/513/479
f 435/516/480 450/527/480 449/540/480 434/514/480
f 447/536/481 462/541/481 461/542/481 446/534/481
f 455/537/482 470/543/482 469/544/482 454/535/482
f 448/538/483 463/545/483 462/541/483 447/536/483
f 456/539/484 471/546/484 470/543/484 455/537/484
f 449/540/485 464/547/485 463/545/485 448/538/485
f 457/525/486 472/548/486 471/546/486 456/539/486
f 450/527/487 465/549/487 464/547/487 449/540/487
f 458/524/488 473/550/488 472/548/488 457/525/488
f 451/526/489 466/551/489 465/549/489 450/527/489
f 444/528/490 459/552/490 82/553/490
f 308/554/491 473/550/491 458/524/491
f 452/531/492 467/555/492 466/551/492 451/526/492
f 445/532/493 460/556/493 459/552/493 444/528/493
f 453/533/494 468/557/494 467/555/494 452/531/494
f 446/534/495 461/542/495 460/556/495 445/532/495
f 454/535/496 469/544/496 468/557/496 453/533/496
f 466/551/497 4/5/497 3/8/497 465/549/497
f 459/552/498 474/9/498 82/558/498
f 308/559/499 482/1/499 473/550/499
f 467/555/500 5/13/500 4/5/500 466/551/500
f 460/556/501 475/15/501 474/9/501 459/552/501
f 468/557/502 478/17/502 5/13/502 467/555/502
f 461/542/503 1/19/503 475/15/503 460/556/503
f 469/544/504 6/21/504 478/17/504 468/557/504
f 462/541/505 476/23/505 1/19/505 461/542/505
f 470/543/506 479/25/506 6/21/506 469/544/506
f 463/545/507 2/27/507 476/23/507 462/541/507
f 471/546/508 480/29/508 479/25/508 470/543/508
f 464/547/509 477/31/509 2/27/509 463/545/509
f 472/548/510 481/4/510 480/29/510 471/546/510
f 465/549/511 3/8/511 477/31/511 464/547/511
f 473/550/512 482/1/512 481/4/512 472/548/512
